<svg xmlns="http://www.w3.org/2000/svg" width="1200" height="900" viewBox="0 0 1200 900">
  <defs>
    <linearGradient id="sky" x1="0" y1="0" x2="0" y2="1">
      <stop offset="0" stop-color="#f0e7d6"/>
      <stop offset="1" stop-color="#e2d2b3"/>
    </linearGradient>
    <linearGradient id="grd" x1="0" y1="0" x2="0" y2="1">
      <stop offset="0" stop-color="#d8c8a8"/>
      <stop offset="1" stop-color="#ece1cc"/>
    </linearGradient>
  </defs>
  <rect width="1200" height="900" fill="url(#sky)"/>
  <circle cx="935" cy="205" r="78" fill="#ffe0a0" opacity="0.55"/>
  <path d="M0 690 Q 300 640 600 672 T 1200 656 V900 H0 Z" fill="url(#grd)" opacity="0.9"/>
  <!-- main villa -->
  <rect x="250" y="430" width="470" height="300" fill="#faf6ee"/>
  <rect x="250" y="430" width="470" height="300" fill="#000" opacity="0.02"/>
  <polygon points="230,432 485,300 740,432" fill="#a98d5f"/>
  <!-- side wing -->
  <rect x="700" y="510" width="250" height="220" fill="#ece1cc"/>
  <polygon points="686,512 825,420 964,512" fill="#a98d5f" opacity="0.92"/>
  <!-- windows glow -->
  <g fill="#ffe0a0">
    <rect x="300" y="486" width="70" height="92" rx="4"/>
    <rect x="405" y="486" width="70" height="92" rx="4"/>
    <rect x="510" y="486" width="70" height="92" rx="4"/>
    <rect x="740" y="556" width="58" height="76" rx="4"/>
    <rect x="828" y="556" width="58" height="76" rx="4"/>
  </g>
  <!-- door -->
  <rect x="605" y="628" width="66" height="102" rx="3" fill="#a98d5f"/>
  <!-- slim trees -->
  <g fill="#a98d5f" opacity="0.8">
    <rect x="168" y="560" width="12" height="170"/>
    <ellipse cx="174" cy="548" rx="46" ry="60"/>
    <rect x="1030" y="576" width="11" height="154"/>
    <ellipse cx="1035" cy="566" rx="38" ry="52"/>
  </g>
</svg>